<svg xmlns="http://www.w3.org/2000/svg" viewBox="0 0 512 256" role="img" aria-hidden="true">
	<defs>
		<linearGradient id="wing" x1="0" y1="0" x2="1" y2="1">
			<stop offset="0" stop-color="#5B21B6" />
			<stop offset="1" stop-color="#C4B5FD" />
		</linearGradient>
		<filter id="soft" x="-20%" y="-20%" width="140%" height="140%">
			<feDropShadow dx="0" dy="10" stdDeviation="10" flood-color="#0f172a" flood-opacity="0.18" />
		</filter>
	</defs>
	<g filter="url(#soft)">
		<g transform="translate(170 128) rotate(90)">
			<path d="M -72,78 L 0,-78 L 72,78 L 40,78 L 24,40 L -24,40 L -40,78 Z" fill="url(#wing)" />
			<path d="M -18,16 L 18,16 L 30,40 L -30,40 Z" fill="#ffffff" opacity="0.75" />
		</g>
		<g transform="translate(342 128) rotate(-90)">
			<path d="M -72,78 L 0,-78 L 72,78 L 40,78 L 24,40 L -24,40 L -40,78 Z" fill="url(#wing)" />
			<path d="M -18,16 L 18,16 L 30,40 L -30,40 Z" fill="#ffffff" opacity="0.75" />
		</g>
		<g transform="translate(256 128)">
			<rect x="-52" y="-56" width="104" height="112" rx="22" fill="#0f172a" />
			<rect x="-52" y="-56" width="104" height="112" rx="22" fill="#ffffff" opacity="0.08" />
			<text x="0" y="34" text-anchor="middle" font-family="system-ui, -apple-system, Segoe UI, Roboto, Inter, Arial, sans-serif" font-size="88" font-weight="900" fill="#ffffff">4</text>
		</g>
	</g>
</svg>
